# xmcd
# Copyright (C) 1995-1998 Ti Kan
#
# Track frame offsets:
#       150
#       14327
#       35818
#       61881
#       81724
#       110107
#       127879
#       157792
#       178622
#       200025
#
# Disc length: 3014 seconds
#
# Revision: 0
# Processed by: cddbd v1.5.2PL0 Copyright (c) Steve Scherf et al.
# Submitted via: CD-Import v1.0
#
DISCID=890bc40a
DTITLE=Sieg Über Die Sonne - +1
DYEAR=2004
DGENRE=
TTITLE0=Mirror
TTITLE1=Charlotte De Gaulle
TTITLE2=Gone
TTITLE3=Cleaning Windows
TTITLE4=You Better Send Me Home
TTITLE5=Tv Machine
TTITLE6=Stop The Plug Ins
TTITLE7=Work In Progres
TTITLE8=Love Is Ok
TTITLE9=Waste Time
EXTD=
EXTT0=
EXTT1=
EXTT2=
EXTT3=
EXTT4=
EXTT5=
EXTT6=
EXTT7=
EXTT8=
EXTT9=
PLAYORDER=
